<svg viewBox="0 0 216 64" fill="#000" xmlns="http://www.w3.org/2000/svg" id="app-store">
<path d="M208 1.28C209.782 1.28 211.492 1.988 212.752 3.24824C214.012 4.50849 214.72 6.21775 214.72 8V56C214.72 57.7823 214.012 59.4915 212.752 60.7518C211.492 62.012 209.782 62.72 208 62.72H8C6.21775 62.72 4.50849 62.012 3.24824 60.7518C1.988 59.4915 1.28 57.7823 1.28 56V8C1.28 6.21775 1.988 4.50849 3.24824 3.24824C4.50849 1.988 6.21775 1.28 8 1.28H208ZM208 0H8C5.87827 0 3.84344 0.842855 2.34315 2.34315C0.842855 3.84344 0 5.87827 0 8V56C0 58.1217 0.842855 60.1566 2.34315 61.6569C3.84344 63.1571 5.87827 64 8 64H208C210.122 64 212.157 63.1571 213.657 61.6569C215.157 60.1566 216 58.1217 216 56V8C216 5.87827 215.157 3.84344 213.657 2.34315C212.157 0.842855 210.122 0 208 0Z" fill="none"/>
<path d="M51.3799 30.9008C51.3357 25.9874 55.403 23.597 55.589 23.4857C53.2855 20.1272 49.7152 19.6684 48.4605 19.6318C45.4618 19.3162 42.5531 21.4261 41.0256 21.4261C39.4675 21.4261 37.1153 19.6623 34.58 19.7141C31.3176 19.7644 28.2656 21.6532 26.5917 24.5864C23.1372 30.5669 25.7136 39.3556 29.0233 44.1898C30.6789 46.5573 32.6134 49.2008 35.1456 49.1078C37.6229 49.0056 38.5483 47.5284 41.5378 47.5284C44.4999 47.5284 45.3688 49.1078 47.9513 49.0483C50.61 49.0056 52.2839 46.6701 53.8816 44.2813C55.7948 41.5677 56.5632 38.8952 56.5937 38.758C56.5312 38.7367 51.4302 36.7899 51.3799 30.9008Z"/>
<path d="M46.5018 16.4516C47.8342 14.7854 48.7458 12.5185 48.4927 10.218C46.5643 10.3034 44.1525 11.5519 42.7637 13.1816C41.535 14.6177 40.4373 16.9715 40.7209 19.1851C42.8872 19.3467 45.1114 18.092 46.5018 16.4516Z"/>
<path d="M87.2312 48.7676H83.769L81.8726 42.8084H75.2807L73.4741 48.7676H70.1035L76.6344 28.4797H80.6682L87.2312 48.7676ZM81.3009 40.3082L79.5858 35.0106C79.4044 34.4694 79.0645 33.1949 78.5629 31.1887H78.5019C78.3022 32.0516 77.9805 33.326 77.5384 35.0106L75.8539 40.3082H81.3009Z"/>
<path d="M104.028 41.2732C104.028 43.7612 103.355 45.7278 102.011 47.1715C100.806 48.4566 99.3106 49.0984 97.5254 49.0984C95.5984 49.0984 94.2142 48.4063 93.3711 47.0221H93.3102V54.7284H90.06V38.9545C90.06 37.3903 90.0188 35.785 89.9395 34.1386H92.7979L92.9794 36.4573H93.0403C94.1242 34.7103 95.7692 33.8383 97.9766 33.8383C99.7024 33.8383 101.143 34.5197 102.296 35.8841C103.451 37.2501 104.028 39.0459 104.028 41.2732ZM100.716 41.3921C100.716 39.9682 100.396 38.7944 99.7527 37.8705C99.0499 36.9071 98.1062 36.4253 96.9232 36.4253C96.1213 36.4253 95.3926 36.6936 94.7417 37.2226C94.0892 37.7562 93.6623 38.4529 93.4626 39.3158C93.362 39.7182 93.3117 40.0475 93.3117 40.3067V42.7459C93.3117 43.81 93.6379 44.7079 94.2904 45.4412C94.9429 46.1744 95.7905 46.5403 96.8333 46.5403C98.0574 46.5403 99.0102 46.0677 99.6917 45.1256C100.375 44.1819 100.716 42.938 100.716 41.3921Z"/>
<path d="M120.853 41.2732C120.853 43.7612 120.18 45.7278 118.834 47.1715C117.631 48.4566 116.136 49.0984 114.351 49.0984C112.424 49.0984 111.04 48.4063 110.198 47.0221H110.137V54.7284H106.887V38.9545C106.887 37.3903 106.846 35.785 106.766 34.1386H109.625L109.806 36.4573H109.867C110.95 34.7103 112.594 33.8383 114.803 33.8383C116.528 33.8383 117.968 34.5197 119.124 35.8841C120.275 37.2501 120.853 39.0459 120.853 41.2732ZM117.541 41.3921C117.541 39.9682 117.22 38.7944 116.576 37.8705C115.874 36.9071 114.933 36.4253 113.749 36.4253C112.945 36.4253 112.218 36.6936 111.565 37.2226C110.913 37.7562 110.488 38.4529 110.288 39.3158C110.189 39.7182 110.137 40.0475 110.137 40.3067V42.7459C110.137 43.81 110.463 44.7079 111.113 45.4412C111.765 46.1729 112.613 46.5403 113.659 46.5403C114.883 46.5403 115.836 46.0677 116.517 45.1256C117.2 44.1819 117.541 42.938 117.541 41.3921Z"/>
<path d="M139.664 43.0783C139.664 44.804 139.065 46.208 137.862 47.292C136.54 48.4765 134.7 49.068 132.336 49.068C130.153 49.068 128.403 48.6472 127.078 47.8042L127.831 45.0952C129.258 45.958 130.824 46.391 132.529 46.391C133.754 46.391 134.706 46.1135 135.391 45.5617C136.072 45.0098 136.412 44.2689 136.412 43.3451C136.412 42.5218 136.132 41.8282 135.569 41.2657C135.01 40.7031 134.075 40.1802 132.77 39.697C129.218 38.3722 127.444 36.4315 127.444 33.8795C127.444 32.2117 128.066 30.8442 129.311 29.7801C130.552 28.7145 132.208 28.1825 134.278 28.1825C136.124 28.1825 137.658 28.5041 138.882 29.146L138.069 31.7955C136.926 31.1735 135.633 30.8625 134.187 30.8625C133.043 30.8625 132.15 31.1446 131.51 31.7056C130.968 32.2071 130.697 32.8185 130.697 33.5426C130.697 34.3445 131.006 35.0076 131.628 35.529C132.17 36.0107 133.153 36.5321 134.58 37.0946C136.325 37.7974 137.608 38.6191 138.432 39.5613C139.254 40.5004 139.664 41.6757 139.664 43.0783Z"/>
<path d="M150.411 36.5779H146.829V43.6805C146.829 45.4871 147.46 46.3896 148.725 46.3896C149.306 46.3896 149.788 46.3392 150.169 46.2386L150.259 48.7068C149.618 48.9461 148.775 49.0666 147.731 49.0666C146.447 49.0666 145.444 48.6748 144.72 47.8927C143.999 47.1091 143.636 45.795 143.636 43.9488V36.5749H141.502V34.1357H143.636V31.4572L146.829 30.4937V34.1357H150.411V36.5779Z"/>
<path d="M166.574 41.3328C166.574 43.5815 165.931 45.4276 164.647 46.8713C163.301 48.3577 161.514 49.0986 159.287 49.0986C157.141 49.0986 155.432 48.3867 154.157 46.9628C152.883 45.5389 152.246 43.7415 152.246 41.5752C152.246 39.3083 152.901 37.4515 154.217 36.0078C155.529 34.5626 157.301 33.84 159.528 33.84C161.675 33.84 163.402 34.5519 164.705 35.9773C165.952 37.36 166.574 39.1452 166.574 41.3328ZM163.202 41.438C163.202 40.0889 162.914 38.9318 162.33 37.9668C161.649 36.799 160.674 36.2167 159.412 36.2167C158.106 36.2167 157.113 36.8005 156.432 37.9668C155.848 38.9333 155.56 40.1087 155.56 41.499C155.56 42.8482 155.848 44.0053 156.432 44.9687C157.135 46.1365 158.116 46.7189 159.383 46.7189C160.624 46.7189 161.598 46.1243 162.301 44.9383C162.9 43.955 163.202 42.7857 163.202 41.438Z"/>
<path d="M177.139 36.997C176.817 36.9376 176.475 36.9071 176.115 36.9071C174.972 36.9071 174.087 37.3385 173.465 38.2029C172.924 38.9651 172.652 39.9286 172.652 41.0918V48.7676H169.404L169.434 38.7456C169.434 37.0595 169.394 35.5244 169.312 34.1401H172.143L172.262 36.9391H172.352C172.695 35.9771 173.236 35.2027 173.977 34.6219C174.701 34.099 175.483 33.8383 176.326 33.8383C176.626 33.8383 176.898 33.8596 177.139 33.8977V36.997Z"/>
<path d="M191.677 40.7611C191.677 41.3434 191.639 41.8343 191.558 42.2353H181.807C181.845 43.6805 182.316 44.7857 183.222 45.548C184.044 46.2294 185.106 46.5709 186.411 46.5709C187.855 46.5709 189.172 46.3407 190.356 45.8788L190.866 48.135C189.481 48.7387 187.847 49.0391 185.961 49.0391C183.693 49.0391 181.912 48.3713 180.616 47.0374C179.324 45.7035 178.676 43.9122 178.676 41.6651C178.676 39.4592 179.278 37.6221 180.484 36.1571C181.746 34.593 183.452 33.8109 185.599 33.8109C187.707 33.8109 189.303 34.593 190.387 36.1571C191.245 37.3996 191.677 38.9363 191.677 40.7611ZM188.577 39.918C188.599 38.9546 188.387 38.1222 187.946 37.4194C187.384 36.5154 186.519 36.0641 185.356 36.0641C184.294 36.0641 183.429 36.5047 182.769 37.3889C182.228 38.0917 181.906 38.9347 181.807 39.9165H188.577V39.918Z"/>
<path d="M81.7565 23.5219H80.0659V21H73.3104V23.5219H71.5916L71.5352 19.577H72.3594C72.768 19.1826 73.0944 18.6096 73.3386 17.8582C73.5828 17.1021 73.7401 16.2474 73.8105 15.2941L74.0782 10.7435H80.5449V19.577H81.8481L81.7565 23.5219ZM74.3741 19.577H78.7697V12.1805H75.7759L75.6068 15.0687C75.48 16.9988 75.0691 18.5016 74.3741 19.577Z"/>
<path d="M83.4219 17.1186C83.4219 16.3719 83.5698 15.7003 83.8657 15.1039C84.1615 14.5028 84.5772 14.0426 85.1125 13.7232C85.6479 13.3992 86.2631 13.2372 86.9581 13.2372C87.9866 13.2372 88.8202 13.5682 89.4589 14.2304C90.1023 14.8926 90.4498 15.7708 90.5014 16.865L90.5085 17.2665C90.5085 18.0179 90.3629 18.6895 90.0717 19.2812C89.7853 19.8729 89.372 20.3308 88.8319 20.6548C88.2966 20.9789 87.6767 21.1409 86.9722 21.1409C85.8968 21.1409 85.035 20.784 84.387 20.0702C83.7436 19.3516 83.4219 18.396 83.4219 17.2031V17.1186ZM85.1337 17.2665C85.1337 18.0508 85.2957 18.666 85.6197 19.1121C85.9438 19.5536 86.3946 19.7743 86.9722 19.7743C87.5499 19.7743 87.9983 19.5489 88.3177 19.098C88.6417 18.6472 88.8037 17.9874 88.8037 17.1186C88.8037 16.3484 88.637 15.7379 88.3036 15.2871C87.9749 14.8362 87.5264 14.6108 86.9581 14.6108C86.3993 14.6108 85.9555 14.8339 85.6268 15.28C85.298 15.7215 85.1337 16.3836 85.1337 17.2665Z"/>
<path d="M95.8091 19.7743C96.2365 19.7743 96.591 19.6498 96.8728 19.4009C97.1546 19.152 97.3049 18.8444 97.3236 18.4781H98.9368C98.918 18.9525 98.7701 19.3962 98.493 19.8095C98.2159 20.2181 97.8402 20.5421 97.3659 20.7816C96.8916 21.0211 96.3797 21.1409 95.8302 21.1409C94.7642 21.1409 93.9189 20.7957 93.2943 20.1054C92.6697 19.415 92.3574 18.4617 92.3574 17.2454V17.0693C92.3574 15.9093 92.6674 14.9818 93.2873 14.2868C93.9071 13.587 94.7525 13.2372 95.8232 13.2372C96.7296 13.2372 97.4669 13.5025 98.0351 14.0332C98.6081 14.5591 98.9086 15.2518 98.9368 16.1112H97.3236C97.3049 15.6745 97.1546 15.3152 96.8728 15.0335C96.5957 14.7517 96.2412 14.6108 95.8091 14.6108C95.255 14.6108 94.8276 14.8127 94.527 15.2166C94.2265 15.6158 94.0739 16.224 94.0692 17.0411V17.3158C94.0692 18.1424 94.2171 18.7599 94.513 19.1685C94.8135 19.5724 95.2456 19.7743 95.8091 19.7743Z"/>
<path d="M106.947 14.7376H104.475V21H102.763V14.7376H100.318V13.3781H106.947V14.7376Z"/>
<path d="M111.564 18.5486L113.114 13.3781H114.938L111.909 22.1553C111.444 23.4373 110.655 24.0784 109.542 24.0784C109.293 24.0784 109.019 24.0361 108.718 23.9516V22.6272L109.042 22.6484C109.474 22.6484 109.798 22.5685 110.014 22.4089C110.235 22.2539 110.409 21.9909 110.535 21.6199L110.782 20.9648L108.105 13.3781H109.951L111.564 18.5486Z"/>
<path d="M123.113 21H121.402V14.7587H118.429V21H116.717V13.3781H123.113V21Z"/>
<path d="M132.112 21H130.4V17.9216H127.434V21H125.723V13.3781H127.434V16.555H130.4V13.3781H132.112V21Z"/>
<path d="M134.342 17.1186C134.342 16.3719 134.49 15.7003 134.785 15.1039C135.081 14.5028 135.497 14.0426 136.032 13.7232C136.568 13.3992 137.183 13.2372 137.878 13.2372C138.906 13.2372 139.74 13.5682 140.379 14.2304C141.022 14.8926 141.369 15.7708 141.421 16.865L141.428 17.2665C141.428 18.0179 141.283 18.6895 140.991 19.2812C140.705 19.8729 140.292 20.3308 139.752 20.6548C139.216 20.9789 138.596 21.1409 137.892 21.1409C136.817 21.1409 135.955 20.784 135.307 20.0702C134.663 19.3516 134.342 18.396 134.342 17.2031V17.1186ZM136.053 17.2665C136.053 18.0508 136.215 18.666 136.539 19.1121C136.863 19.5536 137.314 19.7743 137.892 19.7743C138.47 19.7743 138.918 19.5489 139.237 19.098C139.561 18.6472 139.723 17.9874 139.723 17.1186C139.723 16.3484 139.557 15.7379 139.223 15.2871C138.895 14.8362 138.446 14.6108 137.878 14.6108C137.319 14.6108 136.875 14.8339 136.546 15.28C136.218 15.7215 136.053 16.3836 136.053 17.2665Z"/>
<path d="M148.039 21V13.3781H151.132C152.174 13.3781 152.968 13.5612 153.513 13.9275C154.058 14.2891 154.33 14.8104 154.33 15.4913C154.33 15.8436 154.22 16.1606 153.999 16.4423C153.783 16.7194 153.461 16.9331 153.034 17.0834C153.532 17.1867 153.926 17.3957 154.217 17.7103C154.508 18.025 154.654 18.396 154.654 18.8233C154.654 19.5324 154.391 20.0725 153.865 20.4435C153.344 20.8145 152.592 21 151.611 21H148.039ZM149.751 17.7526V19.6475H151.625C152.503 19.6475 152.942 19.3328 152.942 18.7036C152.942 18.0696 152.496 17.7526 151.604 17.7526H149.751ZM149.751 16.5269H151.16C152.132 16.5269 152.618 16.2404 152.618 15.6675C152.618 15.0663 152.158 14.7564 151.238 14.7376H149.751V16.5269Z"/>
</svg>