<svg viewBox="0 0 216 64" fill="#000" xmlns="http://www.w3.org/2000/svg" id="google-play">
<path d="M208 1.28C209.782 1.28 211.492 1.988 212.752 3.24824C214.012 4.50849 214.72 6.21775 214.72 8V56C214.72 57.7823 214.012 59.4915 212.752 60.7518C211.492 62.012 209.782 62.72 208 62.72H8C6.21775 62.72 4.50849 62.012 3.24824 60.7518C1.988 59.4915 1.28 57.7823 1.28 56V8C1.28 6.21775 1.988 4.50849 3.24824 3.24824C4.50849 1.988 6.21775 1.28 8 1.28H208ZM208 0H8C5.87827 0 3.84344 0.842855 2.34315 2.34315C0.842855 3.84344 0 5.87827 0 8V56C0 58.1217 0.842855 60.1566 2.34315 61.6569C3.84344 63.1571 5.87827 64 8 64H208C210.122 64 212.157 63.1571 213.657 61.6569C215.157 60.1566 216 58.1217 216 56V8C216 5.87827 215.157 3.84344 213.657 2.34315C212.157 0.842855 210.122 0 208 0Z" fill="none"/>
<path d="M109.023 34.8C107.68 34.8063 106.368 35.2105 105.254 35.9615C104.14 36.7125 103.274 37.7768 102.764 39.0198C102.254 40.2629 102.124 41.6292 102.39 42.9461C102.656 44.2631 103.306 45.4717 104.258 46.4195C105.21 47.3673 106.422 48.0118 107.74 48.2716C109.059 48.5314 110.424 48.3949 111.665 47.8792C112.906 47.3636 113.966 46.4921 114.711 45.3745C115.457 44.257 115.855 42.9435 115.855 41.6C115.868 40.7007 115.7 39.808 115.361 38.9749C115.022 38.1419 114.519 37.3857 113.881 36.7512C113.244 36.1167 112.485 35.617 111.651 35.2818C110.816 34.9466 109.922 34.7827 109.023 34.8ZM109.023 45.728C108.197 45.7858 107.372 45.5937 106.657 45.1766C105.941 44.7596 105.368 44.1369 105.01 43.3895C104.653 42.6421 104.529 41.8046 104.655 40.9858C104.78 40.1671 105.149 39.4049 105.713 38.7985C106.277 38.192 107.011 37.7693 107.818 37.5852C108.626 37.4012 109.47 37.4644 110.241 37.7665C111.012 38.0687 111.675 38.5959 112.142 39.2795C112.61 39.9632 112.861 40.7717 112.863 41.6C112.889 42.1248 112.809 42.6495 112.629 43.1431C112.449 43.6366 112.172 44.0891 111.814 44.4739C111.456 44.8586 111.025 45.1678 110.545 45.3832C110.066 45.5986 109.549 45.7158 109.023 45.728ZM94.1278 34.8C92.7835 34.8032 91.4704 35.2047 90.3543 35.9538C89.2381 36.7029 88.369 37.766 87.8568 39.0088C87.3446 40.2516 87.2122 41.6184 87.4764 42.9364C87.7406 44.2544 88.3895 45.4645 89.3411 46.4139C90.2927 47.3633 91.5044 48.0094 92.823 48.2705C94.1416 48.5316 95.5081 48.396 96.7497 47.8808C97.9913 47.3657 99.0524 46.4941 99.7989 45.3762C100.545 44.2583 100.943 42.9442 100.943 41.6C100.956 40.7007 100.788 39.808 100.449 38.9749C100.11 38.1419 99.6072 37.3857 98.9698 36.7512C98.3323 36.1167 97.5737 35.617 96.7391 35.2818C95.9045 34.9466 95.011 34.7827 94.1118 34.8H94.1278ZM94.1278 45.728C93.3011 45.789 92.4752 45.5998 91.7576 45.1849C91.04 44.77 90.4639 44.1486 90.1043 43.4017C89.7448 42.6549 89.6184 41.817 89.7417 40.9973C89.8649 40.1776 90.2321 39.414 90.7955 38.8059C91.3588 38.1978 92.0921 37.7734 92.9 37.5879C93.7079 37.4024 94.553 37.4644 95.3251 37.7659C96.0973 38.0674 96.7608 38.5943 97.2293 39.2782C97.6978 39.962 97.9495 40.7711 97.9518 41.6C97.9775 42.1248 97.898 42.6495 97.7177 43.1431C97.5375 43.6366 97.2603 44.0891 96.9024 44.4739C96.5445 44.8586 96.1132 45.1678 95.6339 45.3832C95.1546 45.5986 94.6371 45.7158 94.1118 45.728H94.1278ZM76.3838 36.896V39.776H83.2958C83.1874 41.1325 82.6235 42.4125 81.6958 43.408C81.0042 44.1124 80.1729 44.6642 79.2553 45.0279C78.3377 45.3917 77.3541 45.5593 76.3678 45.52C74.3309 45.52 72.3775 44.7108 70.9372 43.2706C69.4969 41.8303 68.6878 39.8769 68.6878 37.84C68.6878 35.8031 69.4969 33.8497 70.9372 32.4094C72.3775 30.9691 74.3309 30.16 76.3678 30.16C78.3162 30.1282 80.1978 30.8705 81.5998 32.224L83.6318 30.192C82.6853 29.2336 81.5562 28.475 80.3111 27.9611C79.0661 27.4471 77.7306 27.1883 76.3838 27.2C74.9614 27.1446 73.5424 27.377 72.212 27.8831C70.8815 28.3893 69.6669 29.1588 68.641 30.1456C67.615 31.1324 66.7989 32.3161 66.2413 33.6259C65.6838 34.9357 65.3965 36.3445 65.3965 37.768C65.3965 39.1915 65.6838 40.6003 66.2413 41.9101C66.7989 43.2198 67.615 44.4036 68.641 45.3904C69.6669 46.3772 70.8815 47.1467 72.212 47.6528C73.5424 48.159 74.9614 48.3913 76.3838 48.336C77.7533 48.3979 79.1202 48.1657 80.3925 47.6551C81.6648 47.1446 82.8129 46.3674 83.7598 45.376C85.436 43.5343 86.331 41.1132 86.2558 38.624C86.2609 38.0176 86.2073 37.4121 86.0958 36.816L76.3838 36.896ZM148.879 39.136C148.462 37.9084 147.682 36.8364 146.642 36.0621C145.602 35.2878 144.351 34.8477 143.055 34.8C142.18 34.7983 141.314 34.9761 140.51 35.3224C139.706 35.6688 138.982 36.1763 138.382 36.8136C137.782 37.451 137.32 38.2045 137.023 39.0278C136.726 39.8511 136.601 40.7265 136.655 41.6C136.636 42.4942 136.797 43.3833 137.129 44.2139C137.46 45.0445 137.956 45.7998 138.587 46.4345C139.217 47.0692 139.969 47.5704 140.797 47.9081C141.625 48.2458 142.513 48.4131 143.407 48.4C144.526 48.406 145.63 48.1344 146.618 47.6094C147.607 47.0845 148.449 46.3226 149.071 45.392L146.751 43.792C146.405 44.3692 145.915 44.8467 145.329 45.1777C144.742 45.5086 144.08 45.6817 143.407 45.68C142.714 45.7064 142.029 45.5237 141.441 45.1556C140.854 44.7875 140.39 44.251 140.111 43.616L149.215 39.856L148.879 39.136ZM139.599 41.408C139.567 40.9131 139.633 40.4167 139.795 39.9479C139.957 39.4791 140.211 39.0473 140.542 38.6777C140.872 38.3082 141.274 38.0084 141.722 37.7959C142.17 37.5833 142.656 37.4623 143.151 37.44C143.667 37.406 144.182 37.5243 144.632 37.7803C145.081 38.0363 145.445 38.4187 145.679 38.88L139.599 41.408ZM132.207 48H135.199V28H132.207V48ZM127.311 36.32H127.199C126.748 35.8158 126.196 35.4127 125.578 35.1369C124.961 34.8612 124.292 34.7191 123.615 34.72C121.867 34.8048 120.218 35.5591 119.01 36.8265C117.803 38.094 117.129 39.7774 117.129 41.528C117.129 43.2786 117.803 44.962 119.01 46.2295C120.218 47.4969 121.867 48.2512 123.615 48.336C124.293 48.3474 124.966 48.21 125.585 47.9336C126.204 47.6572 126.755 47.2484 127.199 46.736H127.295V47.712C127.295 50.32 125.903 51.712 123.663 51.712C122.917 51.6945 122.193 51.4555 121.583 51.0252C120.974 50.595 120.506 49.993 120.239 49.296L117.631 50.384C118.122 51.5782 118.959 52.5985 120.033 53.314C121.108 54.0295 122.372 54.4077 123.663 54.4C127.167 54.4 130.063 52.336 130.063 47.312V35.2H127.311V36.32ZM123.887 45.728C122.855 45.637 121.895 45.1628 121.195 44.3987C120.495 43.6346 120.107 42.6361 120.107 41.6C120.107 40.5639 120.495 39.5654 121.195 38.8013C121.895 38.0372 122.855 37.5629 123.887 37.472C124.399 37.4982 124.9 37.6267 125.362 37.8496C125.823 38.0726 126.235 38.3857 126.573 38.7704C126.912 39.1551 127.17 39.6036 127.332 40.0896C127.495 40.5755 127.558 41.0891 127.519 41.6C127.563 42.1131 127.502 42.6297 127.34 43.1186C127.179 43.6075 126.919 44.0586 126.578 44.4444C126.237 44.8303 125.822 45.143 125.356 45.3636C124.891 45.5843 124.386 45.7082 123.871 45.728H123.887ZM162.895 28H155.743V48H158.735V40.416H162.911C163.764 40.4772 164.62 40.3622 165.426 40.078C166.233 39.7937 166.972 39.3464 167.598 38.764C168.223 38.1815 168.723 37.4764 169.064 36.6925C169.405 35.9087 169.581 35.0629 169.581 34.208C169.581 33.3531 169.405 32.5073 169.064 31.7235C168.723 30.9396 168.223 30.2345 167.598 29.652C166.972 29.0695 166.233 28.6223 165.426 28.338C164.62 28.0538 163.764 27.9387 162.911 28H162.895ZM162.895 37.6H158.719V30.784H162.959C163.869 30.784 164.742 31.1456 165.386 31.7892C166.03 32.4328 166.391 33.3058 166.391 34.216C166.391 35.1262 166.03 35.9992 165.386 36.6428C164.742 37.2864 163.869 37.648 162.959 37.648L162.895 37.6ZM181.343 34.72C180.254 34.6549 179.169 34.9094 178.223 35.4523C177.276 35.9953 176.509 36.8029 176.015 37.776L178.671 38.88C178.933 38.3973 179.33 38.0013 179.813 37.7399C180.296 37.4786 180.844 37.3632 181.391 37.408C181.771 37.3636 182.156 37.3953 182.523 37.5013C182.891 37.6073 183.233 37.7853 183.531 38.0251C183.829 38.2649 184.076 38.5616 184.258 38.8979C184.44 39.2343 184.553 39.6035 184.591 39.984V40.192C183.63 39.6832 182.559 39.4194 181.471 39.424C178.607 39.424 175.711 41.024 175.711 43.92C175.74 44.5375 175.891 45.1431 176.158 45.7009C176.424 46.2587 176.799 46.7575 177.262 47.1677C177.724 47.5779 178.264 47.8912 178.85 48.0891C179.435 48.2871 180.055 48.3656 180.671 48.32C181.425 48.3741 182.179 48.2244 182.855 47.8865C183.53 47.5487 184.102 47.0352 184.511 46.4H184.607V48H187.487V40.304C187.487 36.8 184.831 34.768 181.423 34.768L181.343 34.72ZM180.975 45.68C179.999 45.68 178.639 45.184 178.639 43.984C178.639 42.384 180.335 41.856 181.839 41.856C182.79 41.8325 183.729 42.0646 184.559 42.528C184.459 43.3942 184.05 44.1951 183.406 44.7832C182.762 45.3712 181.927 45.7067 181.055 45.728L180.975 45.68ZM197.983 35.2L194.559 43.872H194.463L190.911 35.2H187.711L193.039 47.328L189.999 54.064H193.119L201.311 35.2H197.983ZM171.087 48H174.079V28H171.087V48Z"/>
<path d="M67.3774 22.8321H66.1934V19.6321H67.2014C67.661 19.1451 68.0081 18.5631 68.2182 17.9272C68.4283 17.2913 68.4963 16.6171 68.4174 15.9521V11.2001H74.8174V19.6161H75.8894V22.8161H74.7054V20.8001H67.3774V22.8321ZM69.6014 16.0001C69.676 17.2907 69.3581 18.5737 68.6894 19.6801H73.4894V12.3841H69.6014V16.0001ZM85.4574 19.5521C84.522 20.4823 83.2565 21.0044 81.9374 21.0044C80.6182 21.0044 79.3527 20.4823 78.4174 19.5521C77.5082 18.5897 77.0017 17.316 77.0017 15.9921C77.0017 14.6682 77.5082 13.3945 78.4174 12.4321C78.8784 11.9677 79.4268 11.5991 80.0309 11.3476C80.635 11.0961 81.283 10.9666 81.9374 10.9666C82.5918 10.9666 83.2397 11.0961 83.8438 11.3476C84.4479 11.5991 84.9963 11.9677 85.4574 12.4321C86.3701 13.3926 86.8791 14.6671 86.8791 15.9921C86.8791 17.3172 86.3701 18.5916 85.4574 19.5521ZM79.3294 18.7521C80.0221 19.4419 80.9598 19.8292 81.9374 19.8292C82.9149 19.8292 83.8527 19.4419 84.5454 18.7521C85.229 17.9985 85.6076 17.0175 85.6076 16.0001C85.6076 14.9827 85.229 14.0017 84.5454 13.2481C83.8527 12.5583 82.9149 12.171 81.9374 12.171C80.9598 12.171 80.0221 12.5583 79.3294 13.2481C78.6458 14.0017 78.2671 14.9827 78.2671 16.0001C78.2671 17.0175 78.6458 17.9985 79.3294 18.7521ZM93.0894 21.0081C92.4288 21.0212 91.7725 20.9006 91.1599 20.6533C90.5472 20.4061 89.9909 20.0374 89.5245 19.5695C89.0581 19.1016 88.6913 18.5442 88.446 17.9307C88.2007 17.3173 88.0821 16.6606 88.0974 16.0001C88.0821 15.3396 88.2007 14.6829 88.446 14.0695C88.6913 13.456 89.0581 12.8986 89.5245 12.4307C89.9909 11.9628 90.5472 11.5941 91.1599 11.3469C91.7725 11.0997 92.4288 10.979 93.0894 10.9921C93.7589 10.9755 94.4234 11.1109 95.033 11.388C95.6427 11.6651 96.1816 12.0768 96.6094 12.5921L95.7454 13.4241C95.4293 13.0229 95.0219 12.7032 94.557 12.4916C94.0922 12.2801 93.5835 12.1829 93.0734 12.2081C92.5823 12.1953 92.0936 12.2823 91.6371 12.4639C91.1806 12.6454 90.7657 12.9176 90.4174 13.2641C89.7237 14.0222 89.3389 15.0125 89.3389 16.0401C89.3389 17.0677 89.7237 18.058 90.4174 18.8161C90.7657 19.1626 91.1806 19.4348 91.6371 19.6164C92.0936 19.7979 92.5823 19.8849 93.0734 19.8721C93.6365 19.8671 94.1915 19.7367 94.698 19.4904C95.2045 19.244 95.6497 18.888 96.0014 18.4481L96.8654 19.3121C96.4299 19.8403 95.8837 20.2663 95.2654 20.5601C94.5824 20.8694 93.839 21.0225 93.0894 21.0081ZM101.889 20.8001H100.657V12.3841H97.9694V11.2001H104.561V12.3841H101.889V20.8001ZM113.041 11.2001L109.409 19.2961C109.264 19.775 108.974 20.197 108.578 20.5036C108.183 20.8103 107.702 20.9866 107.201 21.0081C106.871 21.0039 106.544 20.9332 106.241 20.8001L106.561 19.6641C106.756 19.7773 106.976 19.838 107.201 19.8401C107.437 19.8578 107.672 19.8019 107.873 19.6801C108.066 19.5169 108.215 19.3078 108.305 19.0721L108.657 18.3041L105.457 11.2161H106.913L109.281 16.7201L111.585 11.2001H113.041ZM114.433 20.8001V11.2001H121.377V20.8001H120.145V12.3841H115.665V20.8001H114.433ZM123.569 20.8001V11.2001H124.801V15.3121H129.601V11.2001H130.833V20.8001H129.601V16.4641H124.801V20.8001H123.569ZM140.897 19.5521C139.962 20.4823 138.697 21.0044 137.377 21.0044C136.058 21.0044 134.793 20.4823 133.857 19.5521C132.948 18.5897 132.442 17.316 132.442 15.9921C132.442 14.6682 132.948 13.3945 133.857 12.4321C134.319 11.9677 134.867 11.5991 135.471 11.3476C136.075 11.0961 136.723 10.9666 137.377 10.9666C138.032 10.9666 138.68 11.0961 139.284 11.3476C139.888 11.5991 140.436 11.9677 140.897 12.4321C141.81 13.3926 142.319 14.6671 142.319 15.9921C142.319 17.3172 141.81 18.5916 140.897 19.5521ZM134.769 18.7521C135.462 19.4419 136.4 19.8292 137.377 19.8292C138.355 19.8292 139.293 19.4419 139.985 18.7521C140.669 17.9985 141.048 17.0175 141.048 16.0001C141.048 14.9827 140.669 14.0017 139.985 13.2481C139.293 12.5583 138.355 12.171 137.377 12.171C136.4 12.171 135.462 12.5583 134.769 13.2481C134.086 14.0017 133.707 14.9827 133.707 16.0001C133.707 17.0175 134.086 17.9985 134.769 18.7521ZM147.345 20.8001V11.2001H150.817C151.538 11.1865 152.237 11.4499 152.769 11.9361C153.037 12.1681 153.25 12.4561 153.394 12.7796C153.537 13.103 153.608 13.4542 153.601 13.8081C153.609 14.2346 153.486 14.6532 153.249 15.0081C153.015 15.3528 152.687 15.6245 152.305 15.7921C152.77 15.9457 153.177 16.2357 153.473 16.6241C153.781 17.0161 153.945 17.5018 153.937 18.0001C153.946 18.369 153.872 18.7351 153.723 19.0724C153.574 19.4098 153.352 19.7102 153.073 19.9521C152.516 20.466 151.783 20.7466 151.025 20.7361L147.345 20.8001ZM148.577 15.3121H150.817C151.027 15.3208 151.235 15.2838 151.429 15.2037C151.622 15.1236 151.796 15.0022 151.937 14.8481C152.079 14.7197 152.193 14.564 152.274 14.3904C152.354 14.2168 152.398 14.0288 152.404 13.8377C152.41 13.6466 152.378 13.4562 152.308 13.2779C152.239 13.0997 152.135 12.9372 152.001 12.8001C151.868 12.6489 151.702 12.5289 151.517 12.4487C151.332 12.3685 151.131 12.3301 150.929 12.3361H148.641L148.577 15.3121ZM148.577 19.6161H151.057C151.274 19.6234 151.49 19.5827 151.689 19.4969C151.888 19.4112 152.066 19.2825 152.209 19.1201C152.492 18.8275 152.652 18.4385 152.657 18.0321C152.657 17.6078 152.489 17.2008 152.189 16.9007C151.889 16.6007 151.482 16.4321 151.057 16.4321H148.625L148.577 19.6161Z"/>
<path fill-rule="evenodd" clip-rule="evenodd" d="M81.9372 11.1265C81.3039 11.1265 80.6769 11.2518 80.0922 11.4952C79.5082 11.7383 78.978 12.0946 78.5321 12.5433C77.6519 13.4758 77.1615 14.7096 77.1615 15.992C77.1615 17.2742 77.6517 18.5079 78.5318 19.4403C79.437 20.3396 80.6612 20.8443 81.9372 20.8443C83.2133 20.8443 84.4375 20.3395 85.3427 19.4402C86.2263 18.5096 86.7189 17.2753 86.7189 15.992C86.7189 14.7086 86.2261 13.4741 85.3424 12.5435C84.8965 12.0946 84.3662 11.7384 83.7821 11.4952C83.1975 11.2518 82.5705 11.1265 81.9372 11.1265ZM79.9692 11.1998C80.5928 10.9401 81.2617 10.8065 81.9372 10.8065C82.6127 10.8065 83.2815 10.9401 83.9051 11.1998C84.5287 11.4594 85.0948 11.8399 85.5707 12.3193L85.5732 12.3218C86.5142 13.312 87.0389 14.6259 87.0389 15.992C87.0389 17.3581 86.5142 18.672 85.5732 19.6622L85.57 19.6655C84.6047 20.6255 83.2986 21.1643 81.9372 21.1643C80.5758 21.1643 79.2697 20.6254 78.3043 19.6655L78.3008 19.6619C77.3636 18.6699 76.8415 17.3568 76.8415 15.992C76.8415 14.6272 77.3636 13.3142 78.3009 12.3221L78.3036 12.3192C78.7795 11.8399 79.3456 11.4594 79.9692 11.1998ZM137.377 11.1265C136.744 11.1265 136.117 11.2518 135.533 11.4952C134.949 11.7383 134.418 12.0945 133.972 12.5432C133.092 13.4757 132.602 14.7096 132.602 15.992C132.602 17.2742 133.092 18.5079 133.972 19.4403C134.877 20.3396 136.101 20.8443 137.377 20.8443C138.654 20.8443 139.878 20.3395 140.783 19.4401C141.667 18.5095 142.159 17.2752 142.159 15.992C142.159 14.7086 141.666 13.4742 140.783 12.5435C140.337 12.0947 139.807 11.7384 139.222 11.4952C138.638 11.2518 138.011 11.1265 137.377 11.1265ZM135.41 11.1998C136.033 10.9401 136.702 10.8065 137.377 10.8065C138.053 10.8065 138.722 10.9401 139.345 11.1998C139.969 11.4594 140.535 11.8399 141.011 12.3193L141.013 12.3218C141.954 13.3121 142.479 14.6259 142.479 15.992C142.479 17.3581 141.954 18.672 141.013 19.6622L141.01 19.6655C140.045 20.6255 138.739 21.1643 137.377 21.1643C136.016 21.1643 134.71 20.6254 133.745 19.6655L133.741 19.6619C132.804 18.6699 132.282 17.3568 132.282 15.992C132.282 14.6272 132.804 13.3142 133.741 12.3221L133.744 12.3192C134.22 11.8399 134.786 11.4594 135.41 11.1998ZM94.9666 11.5336C94.379 11.2664 93.7384 11.136 93.0931 11.152L93.086 11.1521C92.4471 11.1394 91.8122 11.256 91.2195 11.4952C90.6269 11.7343 90.0888 12.0909 89.6377 12.5435C89.1865 12.9961 88.8316 13.5354 88.5944 14.1288C88.3571 14.7222 88.2424 15.3574 88.2571 15.9963L88.2573 16.0037C88.2426 16.6426 88.3571 17.2779 88.5944 17.8712C88.8316 18.4646 89.1865 19.0039 89.6377 19.4565C90.0888 19.9091 90.6269 20.2657 91.2195 20.5048C91.8122 20.744 92.4471 20.8607 93.086 20.848L93.0892 21.008L93.0922 20.848C93.8176 20.8619 94.5369 20.714 95.1978 20.4149C95.7507 20.152 96.2438 19.7796 96.6476 19.3207L96.0116 18.6847C95.6648 19.0805 95.2421 19.4035 94.7678 19.6341C94.2403 19.8907 93.6624 20.0266 93.076 20.032C92.5637 20.0451 92.054 19.9543 91.5778 19.7649C91.1012 19.5754 90.6679 19.2912 90.3043 18.9294L90.299 18.9241C89.5783 18.1366 89.1787 17.1076 89.1787 16.04C89.1787 14.9724 89.5784 13.9436 90.2991 13.156L90.3042 13.1505C90.6678 12.7887 91.1012 12.5046 91.5778 12.3151C92.0526 12.1263 92.5606 12.0354 93.0713 12.0479C93.6049 12.0225 94.1369 12.1246 94.6231 12.3459C95.0576 12.5436 95.4444 12.8314 95.7581 13.1894L96.3893 12.5816C95.9937 12.1374 95.5092 11.7802 94.9666 11.5336ZM93.0892 21.168C92.4082 21.1812 91.7315 21.0565 91.0998 20.8016C90.4671 20.5463 89.8927 20.1656 89.411 19.6824C88.9294 19.1992 88.5505 18.6235 88.2972 17.99C88.0444 17.3577 87.9219 16.6808 87.9371 16C87.9219 15.3192 88.0444 14.6423 88.2972 14.01C88.5505 13.3765 88.9294 12.8008 89.411 12.3176C89.8927 11.8344 90.4671 11.4537 91.0998 11.1984C91.7313 10.9436 92.4079 10.8189 93.0888 10.832C93.7812 10.8154 94.4685 10.9556 95.0991 11.2422C95.7307 11.5294 96.2891 11.9559 96.7323 12.4898L96.8272 12.6042L95.7288 13.6619L95.6195 13.523C95.3193 13.1419 94.9322 12.8381 94.4906 12.6371C94.049 12.4362 93.5657 12.3438 93.0811 12.3678L93.069 12.3684C92.5995 12.3562 92.1325 12.4389 91.696 12.6124C91.2608 12.7855 90.8651 13.0448 90.5327 13.3748C89.8676 14.103 89.4987 15.0537 89.4987 16.04C89.4987 17.0264 89.8676 17.977 90.5327 18.7052C90.8651 19.0352 91.2608 19.2945 91.696 19.4676C92.1325 19.6411 92.5995 19.7243 93.069 19.7121L93.0717 19.712C93.6111 19.7072 94.1427 19.5823 94.6278 19.3464C95.1129 19.1104 95.5394 18.7694 95.8762 18.3481L95.9879 18.2084L97.0811 19.3016L96.9886 19.4138C96.5382 19.9601 95.9733 20.4007 95.3338 20.7045L95.3312 20.7058C94.6275 21.0245 93.8616 21.1824 93.0892 21.168ZM152.662 12.0542C152.159 11.5956 151.5 11.3471 150.82 11.36H150.817H147.505V20.6372L151.023 20.576H151.028C151.745 20.586 152.438 20.3205 152.965 19.8344L152.968 19.8312C153.229 19.6046 153.437 19.3235 153.577 19.0076C153.717 18.6917 153.785 18.3489 153.778 18.0035L153.777 17.9976C153.784 17.536 153.633 17.086 153.348 16.7228L153.346 16.7212C153.069 16.3583 152.689 16.0874 152.255 15.9439L151.86 15.813L152.241 15.6455C152.595 15.49 152.899 15.2382 153.117 14.9187C153.335 14.591 153.448 14.2045 153.441 13.8108V13.8049C153.448 13.4744 153.382 13.1465 153.247 12.8444C153.113 12.5424 152.914 12.2735 152.665 12.0568L152.662 12.0542ZM152.876 11.8166C152.314 11.3039 151.577 11.026 150.816 11.04H147.185V20.9628L151.023 20.896H151.026C151.823 20.9064 152.594 20.6113 153.18 20.0712C153.476 19.8141 153.711 19.4952 153.869 19.1371C154.028 18.7792 154.106 18.3908 154.097 17.9995V18.0024L153.937 18L154.097 17.9965V17.9995C154.105 17.4659 153.929 16.9459 153.6 16.526C153.355 16.2061 153.04 15.9489 152.682 15.7731C152.958 15.5993 153.196 15.3699 153.382 15.0981L153.383 15.0968C153.637 14.7157 153.769 14.2662 153.761 13.8081V13.8111L153.601 13.808L153.761 13.8052V13.8081C153.768 13.4318 153.693 13.0585 153.54 12.7145C153.387 12.3702 153.16 12.0637 152.876 11.8166ZM68.2572 11.04H74.9772V19.456H76.0492V22.976H74.5452V20.96H67.5372V22.992H66.0332V19.472H67.1314C67.5519 19.0124 67.8705 18.4688 68.0661 17.8769C68.2689 17.2633 68.3345 16.6126 68.2583 15.9709L68.2572 15.9615V11.04ZM68.5772 11.36V15.9426C68.6571 16.6278 68.5864 17.3222 68.3699 17.9773C68.1525 18.6354 67.7932 19.2377 67.3175 19.7418L67.2702 19.792H66.3532V22.672H67.2172V20.64H74.8652V22.656H75.7292V19.776H74.6572V11.36H68.5772ZM97.8092 11.04H104.721V12.544H102.049V20.96H100.497V12.544H97.8092V11.04ZM98.1292 11.36V12.224H100.817V20.64H101.729V12.224H104.401V11.36H98.1292ZM111.479 11.04H113.289L109.56 19.3524C109.404 19.8589 109.095 20.3051 108.676 20.63C108.254 20.957 107.741 21.1449 107.208 21.1679L107.199 21.1682C106.847 21.1638 106.5 21.0882 106.177 20.9465L106.05 20.8905L106.463 19.4218L106.642 19.5257C106.812 19.625 107.006 19.6782 107.203 19.68L107.214 19.6801C107.411 19.695 107.609 19.6496 107.78 19.5495C107.947 19.4049 108.077 19.2212 108.156 19.0146L108.16 19.0052L108.482 18.3035L105.21 11.056H107.019L109.279 16.31L111.479 11.04ZM111.692 11.36L109.284 17.13L106.808 11.376H105.705L108.833 18.3045L108.453 19.1342C108.352 19.3931 108.189 19.6227 107.977 19.8021L107.967 19.8104L107.956 19.817C107.727 19.9551 107.461 20.0189 107.195 19.9999C107.012 19.9976 106.832 19.9608 106.663 19.8921L106.434 20.7054C106.679 20.7958 106.938 20.8441 107.199 20.848C107.664 20.827 108.112 20.6626 108.48 20.3771C108.849 20.0907 109.121 19.6967 109.256 19.2495L109.259 19.2398L112.794 11.36H111.692ZM114.273 11.04H121.537V20.96H119.985V12.544H115.825V20.96H114.273V11.04ZM114.593 11.36V20.64H115.505V12.224H120.305V20.64H121.217V11.36H114.593ZM123.409 11.04H124.961V15.152H129.441V11.04H130.993V20.96H129.441V16.624H124.961V20.96H123.409V11.04ZM123.729 11.36V20.64H124.641V16.304H129.761V20.64H130.673V11.36H129.761V15.472H124.641V11.36H123.729ZM79.2163 13.1346C79.9389 12.415 80.9173 12.0109 81.9372 12.0109C82.9571 12.0109 83.9354 12.415 84.6581 13.1346L84.6638 13.1404C85.3741 13.9234 85.7674 14.9428 85.7674 16C85.7674 17.0572 85.374 18.0765 84.6637 18.8595L84.6582 18.8655C83.9355 19.5852 82.9571 19.9891 81.9372 19.9891C80.9173 19.9891 79.9389 19.585 79.2163 18.8654L79.3292 18.752L79.2107 18.8595C78.5004 18.0765 78.1069 17.0572 78.1069 16C78.1069 14.9428 78.5004 13.9235 79.2107 13.1405L79.2163 13.1346ZM79.4449 18.6415C80.1074 19.2996 81.0033 19.6691 81.9372 19.6691C82.8711 19.6691 83.767 19.2996 84.4294 18.6415C85.0846 17.9178 85.4474 16.9763 85.4474 16C85.4474 15.0237 85.0846 14.0823 84.4294 13.3585C83.767 12.7004 82.8711 12.3309 81.9372 12.3309C81.0033 12.3309 80.1074 12.7004 79.4449 13.3585C78.7898 14.0823 78.4269 15.0237 78.4269 16C78.4269 16.9763 78.7898 17.9178 79.4449 18.6415ZM134.657 13.1346C135.379 12.415 136.358 12.0109 137.377 12.0109C138.397 12.0109 139.376 12.415 140.098 13.1346L140.104 13.1404C140.814 13.9234 141.208 14.9428 141.208 16C141.208 17.0572 140.814 18.0765 140.104 18.8595L140.099 18.8655C139.376 19.5852 138.397 19.9891 137.377 19.9891C136.358 19.9891 135.379 19.585 134.657 18.8654L134.769 18.752L134.651 18.8595C133.941 18.0765 133.547 17.0572 133.547 16C133.547 14.9428 133.941 13.9235 134.651 13.1405L134.657 13.1346ZM134.885 18.6415C135.548 19.2996 136.444 19.6691 137.377 19.6691C138.311 19.6691 139.207 19.2996 139.87 18.6415C140.525 17.9178 140.888 16.9763 140.888 16C140.888 15.0237 140.525 14.0822 139.87 13.3585C139.207 12.7004 138.311 12.3309 137.377 12.3309C136.444 12.3309 135.548 12.7004 134.885 13.3585C134.23 14.0822 133.867 15.0237 133.867 16C133.867 16.9763 134.23 17.9178 134.885 18.6415ZM150.927 12.176C151.152 12.1697 151.375 12.2126 151.581 12.3018C151.786 12.3908 151.97 12.5237 152.119 12.6912C152.266 12.8431 152.381 13.0229 152.458 13.2199C152.535 13.4182 152.571 13.63 152.564 13.8426C152.558 14.0552 152.508 14.2643 152.419 14.4574C152.331 14.6483 152.205 14.8197 152.05 14.9617C151.894 15.1304 151.703 15.2633 151.49 15.3514C151.276 15.44 151.046 15.4812 150.814 15.472H148.414L148.485 12.176H150.927ZM151.454 12.5954C151.29 12.5246 151.113 12.4906 150.934 12.4959L150.929 12.496H148.798L148.741 15.152H150.824C151.01 15.1598 151.196 15.127 151.367 15.0558C151.539 14.9846 151.694 14.8767 151.82 14.7397L151.825 14.7344L151.83 14.7295C151.956 14.6155 152.057 14.4773 152.128 14.3232C152.2 14.1691 152.239 14.0023 152.244 13.8326C152.25 13.6629 152.221 13.494 152.159 13.3357C152.098 13.1775 152.005 13.0332 151.887 12.9116L151.881 12.9061C151.763 12.7724 151.617 12.6663 151.454 12.5954ZM69.4412 12.224H73.6492V19.84H68.4055L68.5522 19.5972C69.2042 18.5185 69.5142 17.2676 69.4414 16.0092L69.4409 16L69.4412 12.224ZM69.7612 12.544V15.9954C69.8313 17.2234 69.5548 18.4444 68.9658 19.52H73.3292V12.544H69.7612ZM148.468 16.272H151.057C151.524 16.272 151.972 16.4574 152.302 16.7875C152.632 17.1176 152.817 17.5652 152.817 18.032V18.0343C152.811 18.4802 152.636 18.9071 152.327 19.2287C152.168 19.4075 151.972 19.5492 151.752 19.6438C151.532 19.7385 151.294 19.7836 151.055 19.776H148.415L148.468 16.272ZM148.783 16.592L148.74 19.456H151.063C151.256 19.4625 151.448 19.4263 151.626 19.3499C151.803 19.2735 151.962 19.1588 152.09 19.014L152.094 19.0089C152.348 18.7458 152.492 18.3962 152.497 18.0308C152.497 17.6494 152.345 17.2836 152.076 17.0138C151.806 16.7437 151.439 16.592 151.057 16.592H148.783Z"/>
<path d="M16.8734 52.3174L36.4744 31.9874L16.8898 11.6938C16.3667 12.0098 16.043 12.7413 16.043 13.6989V50.3318C16.0501 51.2893 16.3621 51.9674 16.8734 52.3174Z"/>
<path d="M37.176 31.4259L43.0145 25.3695L19.2382 11.8469C18.8378 11.6056 18.383 11.4782 17.9199 11.4775L37.1736 31.4235L37.176 31.4259Z"/>
<path d="M37.1761 32.5513L17.8613 52.5849C18.3461 52.5932 18.8236 52.462 19.2406 52.2057L43.0639 38.6467L37.1761 32.5513Z"/>
<path d="M51.627 30.2765L43.7149 25.7682L37.7168 31.9899L43.7594 38.2506L51.6246 33.7544C53.2972 32.7992 53.2971 31.2268 51.627 30.2765Z"/>
</svg>