<?xml version="1.0" standalone="no"?>
<!DOCTYPE svg PUBLIC "-//W3C//DTD SVG 20010904//EN"
 "http://www.w3.org/TR/2001/REC-SVG-20010904/DTD/svg10.dtd">
<svg version="1.0" xmlns="http://www.w3.org/2000/svg"
 width="367.000000pt" height="367.000000pt" viewBox="0 0 367.000000 367.000000"
 preserveAspectRatio="xMidYMid meet">
<metadata>
Created by potrace 1.14, written by Peter Selinger 2001-2017
</metadata>
<g transform="translate(0.000000,367.000000) scale(0.100000,-0.100000)"
fill="#000000" stroke="none">
<path d="M135 3656 c-46 -11 -106 -69 -121 -116 -7 -24 -10 -577 -10 -1726 l1
-1690 27 -42 c47 -70 68 -76 270 -77 116 -1 175 2 171 8 -4 6 -1 7 8 1 8 -5
641 -9 1522 -10 1174 0 1515 2 1543 12 87 30 121 99 119 239 -10 494 -129 986
-347 1435 -34 69 -61 130 -61 135 0 6 28 67 61 137 175 361 283 732 326 1123
20 180 27 395 13 445 -13 49 -49 94 -94 115 -36 18 -109 19 -1576 19 -845 1
-1537 -3 -1537 -7 0 -5 -5 -5 -12 -1 -17 11 -259 11 -303 0z m430 -243 c15
-15 16 -28 16 -188 0 -128 -1 -139 -11 -155 -12 -20 -320 -25 -347 -5 -14 11
-16 34 -16 175 0 146 1 164 18 176 27 20 320 18 340 -3z m-1 -562 c13 -11 16
-39 16 -175 0 -113 -4 -166 -12 -174 -8 -8 -61 -12 -174 -12 -148 0 -164 2
-176 19 -11 16 -16 191 -9 324 2 28 32 33 191 32 107 -1 152 -5 164 -14z m1
-561 c22 -18 22 -332 0 -350 -13 -10 -154 -16 -300 -11 -56 2 -58 6 -60 172
-1 159 3 185 35 197 33 12 309 5 325 -8z m-1 -563 c15 -11 17 -32 18 -172 0
-203 11 -191 -183 -190 -155 1 -185 6 -191 33 -2 9 -3 83 -3 164 1 106 5 151
14 162 11 13 39 16 170 16 112 0 162 -4 175 -13z m1 -563 c23 -23 22 -326 -1
-348 -21 -22 -310 -24 -339 -2 -17 12 -18 29 -18 176 0 145 2 164 18 176 27
20 319 18 340 -2z m-1 -563 c13 -11 16 -39 16 -175 0 -113 -4 -166 -12 -174
-8 -8 -61 -12 -174 -12 -148 0 -164 2 -176 19 -9 13 -13 58 -11 162 2 178 0
165 17 181 19 19 317 18 340 -1z"/>
</g>
</svg>
