<svg width="28" height="28" viewBox="0 0 28 28" fill="none" xmlns="http://www.w3.org/2000/svg">
<path d="M14.0108 0C21.7417 0 28 6.2583 28 13.9892C28 20.9762 22.8788 26.7748 16.198 27.8234V18.0387H19.4462L20.0743 13.9892H16.1764V11.3689C16.1764 10.2645 16.7394 9.18173 18.4718 9.18173H20.2258V5.76022C20.2258 5.76022 18.645 5.45708 17.1075 5.45708C16.7069 5.45708 16.3239 5.48749 15.9603 5.54766C13.4153 5.96866 11.8236 7.84453 11.8236 10.9142V13.9892H8.25056V18.0387H11.8236V27.8267C5.13226 26.7656 0 20.9837 0 13.9892C0 6.2583 6.27999 0 14.0108 0Z" fill="white"/>
</svg>
