<svg width="18" height="19" viewBox="0 0 18 19" fill="none" xmlns="http://www.w3.org/2000/svg">
<g clip-path="url(#clip0)">
<path d="M18.0011 9.39307C18.0011 8.76889 17.9505 8.14134 17.8425 7.52728H9.18164V11.0632H14.1413C13.9355 12.2036 13.2742 13.2124 12.3059 13.8534V16.1477H15.2648C17.0024 14.5485 18.0011 12.1867 18.0011 9.39307Z" fill="#4285F4"/>
<path d="M9.18005 18.3644C11.6565 18.3644 13.745 17.5513 15.2666 16.1477L12.3077 13.8534C11.4844 14.4135 10.4217 14.7307 9.18342 14.7307C6.78792 14.7307 4.7568 13.1145 4.02803 10.9417H0.974609V13.3068C2.53337 16.4075 5.70826 18.3644 9.18005 18.3644Z" fill="#34A853"/>
<path d="M4.02485 10.9417C3.64022 9.80131 3.64022 8.56644 4.02485 7.42605V5.06091H0.974804C-0.327539 7.65548 -0.327539 10.7123 0.974804 13.3068L4.02485 10.9417Z" fill="#FBBC04"/>
<path d="M9.18004 3.63375C10.4891 3.6135 11.7544 4.1061 12.7024 5.01032L15.324 2.38876C13.664 0.829999 11.4608 -0.0269831 9.18004 8.42568e-06C5.70825 8.42568e-06 2.53337 1.9569 0.974609 5.06093L4.02466 7.42606C4.75005 5.24987 6.78454 3.63375 9.18004 3.63375Z" fill="#EA4335"/>
</g>
<defs>
<clipPath id="clip0">
<rect width="18" height="18.3644" fill="white"/>
</clipPath>
</defs>
</svg>
