<svg xmlns="http://www.w3.org/2000/svg" viewBox="0 0 2960 1435.3"><path d="m176.4 0c-97.43 0-176.4 78.97-176.4 176.4v1082.5c0 97.43 78.97 176.4 176.4 176.4h2607.2c97.43 0 176.4-78.97 176.4-176.4v-1082.5c0-97.43-78.97-176.4-176.4-176.4zm0 34.141h2607.2c79.106 0 142.26 63.153 142.26 142.26v1082.5c0 79.106-63.151 142.26-142.26 142.26h-2607.2c-79.106 0-142.26-63.154-142.26-142.26v-1082.5c0-79.106 63.151-142.26 142.26-142.26z"/><g transform="matrix(1.4723 0 0 1.4723 72.127 -684.46)"><rect x="230.97" y="660.36" width="152.33" height="588.67"/><path d="m707.46 660.36-35.23 275.38-21.68-149.6c-6.51-48.28-12.46-90-18.44-125.78h-197.3v588.67h133.35l0.53-388.67 55.85 388.67h94.86l53.65-397.35v397.35h132.82v-588.67z"/><path d="m1143.9 766.6c5.93 3.23 9.75 8.63 11.33 16.26 2.23 7.62 2.76 24.93 2.76 51.5v228.22c0 39.021-2.76 62.891-7.63 71.58-4.87 9.211-18.42 13.551-40.12 13.551v-386.56c16.3 0 27.63 1.64 33.66 5.45zm-1.69 482.43c36.319 0 64-2.121 81.899-5.931 18.42-3.81 33.61-10.851 45.521-21.17 12.439-9.74 21.119-23.82 25.989-41.72 4.88-17.891 8.16-53.15 8.16-105.72v-206.51c0-55.85-2.17-93.28-5.93-112.23-3.28-18.95-11.44-36.32-24.99-51.46-13.55-15.77-33.56-26.57-59.61-33.66-25.51-6.46-68.289-10.271-141.45-10.271h-113.87v588.67h184.28z"/><path d="m1553.1 1106.5c0 28.16-1.59 46.06-4.35 53.63-2.64 7.57-15.14 11.381-24.351 11.381-8.68 0-15.189-3.811-17.89-10.801-3.28-7.09-4.87-23.87-4.87-49.87v-155.64c0-26.57 1.59-43.35 4.34-49.86 2.7-6.46 8.68-9.75 17.36-9.75 9.22 0 21.66 3.29 24.89 11.39 3.28 7.57 4.87 23.87 4.87 48.22v151.3zm-197.83-446.16v588.67h137.16l9.21-37.371c12.439 15.141 25.99 26.57 41.189 34.141 14.611 7.04 36.841 10.85 54.201 10.85 24.359 0 45-5.98 62.369-18.949 17.311-12.49 28.69-27.681 33.561-44.99 4.34-17.37 7.09-43.41 7.09-78.67v-165.28c0-35.25-1.109-58.55-2.75-69.4-1.59-10.85-5.93-22.229-13.55-33.61-8.16-11.39-19.48-20.07-34.15-26.58-14.659-5.93-31.97-9.21-52.569-9.21-17.36 0-39.59 3.81-54.73 10.27-14.67 7.09-28.221 17.89-40.66 32.03v-191.9z"/></g></svg>
